<?xml version="1.0"?><svg width="539" height="692" xmlns="http://www.w3.org/2000/svg">
 <defs>
  <linearGradient id="XMLID_7_" x1="0.181445" y1="0.159459" x2="0.818561" y2="1.022928">
   <stop offset="0" stop-color="#FFFFFF"/>
   <stop offset="1" stop-color="#9D9FA1"/>
  </linearGradient>
  <linearGradient id="XMLID_8_" x1="1.229268" y1="0.820819" x2="-0.229338" y2="0.267558">
   <stop offset="0" stop-color="#971B1E"/>
   <stop offset="1" stop-color="#ED1C24"/>
  </linearGradient>
  <linearGradient id="XMLID_9_" x1="0.867357" y1="0.722139" x2="0.13262" y2="0.022494">
   <stop offset="0" stop-color="#971B1E"/>
   <stop offset="1" stop-color="#ED1C24"/>
  </linearGradient>
  <linearGradient id="XMLID_11_" x1="0.861327" y1="0.846271" x2="0.13868" y2="0.153737">
   <stop offset="0" stop-color="#D6A477"/>
   <stop offset="1" stop-color="#E4C3A8"/>
  </linearGradient>
  <linearGradient id="XMLID_12_" x1="0.952614" y1="1.054734" x2="0.229745" y2="0.040606">
   <stop offset="0" stop-color="#967348"/>
   <stop offset="1" stop-color="#D6A477"/>
  </linearGradient>
 </defs>
 <g>
  <title>Layer 1</title>
  <path fill="url(#XMLID_7_)" d="m518.900024,563.317017c0,144.909973 -502.899994,144.909973 -502.899994,0c0,-144.911011 112.578995,-262.381989 251.450012,-262.381989s251.449982,117.470978 251.449982,262.381989z" id="svg_1"/>
  <g id="svg_2">
   <g id="svg_3">
    <path fill="url(#XMLID_8_)" d="m309.358002,594.822021c0,59.494019 -25.834991,55.245972 -40.890991,55.245972c-15.05101,0 -40.881012,4.248047 -40.881012,-55.245972c0,-59.526978 25.830002,-160.273987 40.881012,-160.273987c15.056,-0.000031 40.890991,100.746948 40.890991,160.273987z" id="svg_4"/>
   </g>
  </g>
  <g id="svg_5">
   <g id="svg_6">
    <path fill="url(#XMLID_9_)" d="m309.358002,370.803986c0,-23.694 -25.834991,-22.003998 -40.890991,-22.003998c-15.05101,0 -40.881012,-1.688995 -40.881012,22.003998c0,23.714996 25.830002,63.845001 40.881012,63.845001c15.056,-0.000977 40.890991,-40.129974 40.890991,-63.845001z" id="svg_7"/>
   </g>
  </g>
  <g id="svg_8">
   <g id="svg_9">
    <g id="svg_10">
     <path fill="#000000" d="m366.21701,321.316986l-97.263,340.535004l-100.114014,-340.60498c-89.854996,40.014984 -152.839006,133.042999 -152.839006,241.427002c0,144.909973 502.898973,144.909973 502.898973,0c0.000061,-108.321014 -62.911987,-201.304016 -152.682953,-241.357025z" id="svg_11"/>
    </g>
   </g>
  </g>
  <g id="svg_12">
   <g id="svg_13">
    <ellipse fill="url(#XMLID_11_)" cx="267.45" cy="190.965" rx="167.633" ry="174.922" id="svg_14"/>
   </g>
  </g>
  <g id="svg_15">
   <g id="svg_16">
    <path fill="url(#XMLID_12_)" d="m435.083008,256.731995c-23.312012,7.079987 0,-196.574005 -228.531006,-116.109009c-6.216003,0.548004 -15.984009,-20.482994 -64.826996,-14.868996c-6.17601,0.709999 -23.953003,12.519997 -30.142006,13.133995c-19.804001,1.846008 -9.902,-20.302994 -4.056999,-31.973999c2.945999,-6.581993 6.569,-12.953995 10.806999,-19.048996c29.663994,-42.667 89.443001,-71.822001 158.345009,-71.822001c98.444,0 176.626007,43.730001 158.403992,240.518015" id="svg_17"/>
   </g>
  </g>
 </g>
</svg>